<svg width="14" height="14" viewBox="0 0 14 14" fill="none" xmlns="http://www.w3.org/2000/svg">
<path fill-rule="evenodd" clip-rule="evenodd" d="M7.00015 0.146484C6.80172 0.146484 6.60743 0.203252 6.44022 0.310087C6.27514 0.415557 6.14325 0.565475 6.05967 0.74253L4.47211 3.94762C4.46899 3.95392 4.466 3.96028 4.46315 3.96671L4.45991 3.97072L4.45511 3.97259C4.44902 3.97326 4.44294 3.97405 4.43688 3.97495L0.941302 4.49281C0.748098 4.5116 0.563858 4.5841 0.409543 4.7023C0.249871 4.82461 0.129089 4.99059 0.0618284 5.18014C-0.00543176 5.36969 -0.0162849 5.57468 0.0305842 5.77028C0.0772718 5.96511 0.179241 6.1423 0.324207 6.28055L2.88298 8.74937L2.88881 8.7549C2.89246 8.75832 2.89521 8.76259 2.89679 8.76734C2.89837 8.77208 2.89874 8.77715 2.89786 8.78207L2.28756 12.3537C2.25406 12.5471 2.27527 12.7469 2.34908 12.9287C2.42299 13.1109 2.54655 13.2686 2.70568 13.384C2.86482 13.4993 3.05314 13.5677 3.24922 13.5813C3.44491 13.5949 3.64049 13.5534 3.81379 13.4616L3.81484 13.461L6.96432 11.7965C6.97561 11.7916 6.98782 11.789 7.00017 11.789C7.01252 11.789 7.02472 11.7916 7.03602 11.7965L10.1855 13.461C10.3589 13.5531 10.5553 13.595 10.7511 13.5813C10.9472 13.5677 11.1355 13.4993 11.2947 13.384C11.4538 13.2686 11.5774 13.1109 11.6513 12.9287C11.7251 12.7469 11.7464 12.5481 11.713 12.3548L11.7128 12.3537L11.1031 8.78533L11.1025 8.78207C11.1016 8.77715 11.102 8.77208 11.1036 8.76734C11.1051 8.7626 11.1079 8.75832 11.1115 8.7549L11.1174 8.74937L13.6762 6.28052C13.8211 6.14227 13.9231 5.9651 13.9698 5.77028C14.0166 5.57468 14.0058 5.36969 13.9385 5.18014C13.8713 4.99059 13.7505 4.82461 13.5908 4.7023C13.4365 4.5841 13.2523 4.5116 13.0591 4.49281L9.56343 3.97495C9.55737 3.97405 9.55129 3.97326 9.5452 3.97259L9.54039 3.97072L9.53716 3.96671C9.53431 3.96028 9.53132 3.95392 9.5282 3.94762L7.94063 0.742516C7.85705 0.565467 7.72516 0.415554 7.56009 0.310087C7.39287 0.203252 7.19858 0.146484 7.00015 0.146484Z" fill="white"/>
</svg>
